<svg width="88" height="83" viewBox="0 0 88 83" fill="none" xmlns="http://www.w3.org/2000/svg">
<path d="M40 40C36.3333 40 33.1944 38.6945 30.5833 36.0833C27.9722 33.4722 26.6667 30.3333 26.6667 26.6667C26.6667 23 27.9722 19.8611 30.5833 17.25C33.1944 14.6389 36.3333 13.3333 40 13.3333C43.6667 13.3333 46.8056 14.6389 49.4167 17.25C52.0278 19.8611 53.3333 23 53.3333 26.6667C53.3333 30.3333 52.0278 33.4722 49.4167 36.0833C46.8056 38.6945 43.6667 40 40 40ZM13.3333 66.6667V57.3333C13.3333 55.4445 13.8194 53.7083 14.7917 52.125C15.7639 50.5417 17.0556 49.3333 18.6667 48.5C22.1111 46.7778 25.6111 45.4861 29.1667 44.625C32.7222 43.7639 36.3333 43.3333 40 43.3333C43.6667 43.3333 47.2778 43.7639 50.8333 44.625C54.3889 45.4861 57.8889 46.7778 61.3333 48.5C62.9444 49.3333 64.2361 50.5417 65.2083 52.125C66.1806 53.7083 66.6667 55.4445 66.6667 57.3333V66.6667H13.3333ZM20 60H60V57.3333C60 56.7222 59.8472 56.1667 59.5417 55.6667C59.2361 55.1667 58.8333 54.7778 58.3333 54.5C55.3333 53 52.3056 51.875 49.25 51.125C46.1944 50.375 43.1111 50 40 50C36.8889 50 33.8056 50.375 30.75 51.125C27.6944 51.875 24.6667 53 21.6667 54.5C21.1667 54.7778 20.7639 55.1667 20.4583 55.6667C20.1528 56.1667 20 56.7222 20 57.3333V60ZM40 33.3333C41.8333 33.3333 43.4028 32.6806 44.7083 31.375C46.0139 30.0695 46.6667 28.5 46.6667 26.6667C46.6667 24.8333 46.0139 23.2639 44.7083 21.9583C43.4028 20.6528 41.8333 20 40 20C38.1667 20 36.5972 20.6528 35.2917 21.9583C33.9861 23.2639 33.3333 24.8333 33.3333 26.6667C33.3333 28.5 33.9861 30.0695 35.2917 31.375C36.5972 32.6806 38.1667 33.3333 40 33.3333Z" fill="#012E40"/>
<path d="M70 71.6667H74V68.3333H77.3333V64.3333H74V61H70V64.3333H66.6667V68.3333H70V71.6667ZM72 80.3333C68.9111 79.5555 66.3611 77.7833 64.35 75.0167C62.3389 72.25 61.3333 69.1778 61.3333 65.8V57.6667L72 53.6667L82.6667 57.6667V65.8C82.6667 69.1778 81.6611 72.25 79.65 75.0167C77.6389 77.7833 75.0889 79.5555 72 80.3333ZM72 77.5333C74.3111 76.8 76.2222 75.3333 77.7333 73.1333C79.2444 70.9333 80 68.4889 80 65.8V59.5L72 56.5L64 59.5V65.8C64 68.4889 64.7556 70.9333 66.2667 73.1333C67.7778 75.3333 69.6889 76.8 72 77.5333Z" fill="#3CA6A6" fill-opacity="0.8"/>
</svg>
